<svg style="position: absolute; width: 0; height: 0;" width="0" height="0" version="1.1" xmlns="http://www.w3.org/2000/svg" xmlns:xlink="http://www.w3.org/1999/xlink">
<defs>
<symbol id="icon-facebook2" viewBox="0 0 1024 1024">
<title>facebook2</title>
<path class="path1" d="M928 0h-832c-52.8 0-96 43.2-96 96v832c0 52.8 43.2 96 96 96h416v-448h-128v-128h128v-64c0-105.8 86.2-192 192-192h128v128h-128c-35.2 0-64 28.8-64 64v64h192l-32 128h-160v448h288c52.8 0 96-43.2 96-96v-832c0-52.8-43.2-96-96-96z"></path>
</symbol>
<symbol id="icon-instagram" viewBox="0 0 1024 1024">
<title>instagram</title>
<path class="path1" d="M928 0h-832c-52.8 0-96 43.2-96 96v832c0 52.8 43.2 96 96 96h832c52.8 0 96-43.2 96-96v-832c0-52.8-43.2-96-96-96zM704 160c0-17.6 14.4-32 32-32h128c17.6 0 32 14.4 32 32v128c0 17.6-14.4 32-32 32h-128c-17.6 0-32-14.4-32-32v-128zM512 320c106 0 192 86 192 192s-86 192-192 192c-106 0-192-86-192-192s86-192 192-192zM896 864v0c0 17.6-14.4 32-32 32h-704c-17.6 0-32-14.4-32-32v0-416h70.4c-4.2 20.6-6.4 42-6.4 64 0 176.8 143.2 320 320 320s320-143.2 320-320c0-22-2.2-43.4-6.4-64h70.4v416z"></path>
</symbol>
</defs>
</svg>
