<?xml version="1.0" encoding="utf-8"?>
<!-- Generator: Adobe Illustrator 16.0.0, SVG Export Plug-In . SVG Version: 6.00 Build 0)  -->
<svg version="1.2" baseProfile="tiny" id="Layer_1" xmlns="http://www.w3.org/2000/svg" xmlns:xlink="http://www.w3.org/1999/xlink"
	 x="0px" y="0px" width="300px" height="42.335px" viewBox="0 0 300 42.335" xml:space="preserve">
<g>
	<path fill="#CCCCCC" d="M28.96,22.458l-1.553,1.257c-1.676,1.28-3.103,1.922-4.286,1.922c-1.23,0-2.584-0.741-4.061-2.218
		c-1.184-1.23-2.687-1.846-4.509-1.846c-1.723,0-3.202,0.606-4.433,1.819s-1.846,2.687-1.846,4.421c0,1.784,0.615,3.284,1.846,4.497
		c1.233,1.216,2.71,1.822,4.433,1.822h4.731c1.723,0,3.176,0.598,4.356,1.793c1.184,1.195,1.775,2.625,1.775,4.283v2.124H12.633
		c-3.548-0.542-6.539-2.191-8.977-4.951C1.219,34.625,0,31.422,0,27.775c0-3.987,1.415-7.411,4.248-10.267
		c2.83-2.856,6.267-4.285,10.307-4.285c4.579,0,8.174,1.601,10.784,4.802L28.96,22.458z"/>
	<path fill="#CCCCCC" d="M52.541,27.628c0,4.04-1.441,7.474-4.321,10.307c-2.883,2.833-6.343,4.248-10.38,4.248H25.28v-2.068
		c0.047-1.723,0.601-3.176,1.661-4.359c1.058-1.184,2.402-1.772,4.028-1.772h7.017c1.723,0,3.202-0.624,4.433-1.872
		c1.23-1.251,1.846-2.754,1.846-4.518c0-1.91-0.604-3.466-1.811-4.664c-1.204-1.201-2.695-1.729-4.468-1.579h-0.814
		c-1.623,0.146-3.053-0.401-4.283-1.646c-1.233-1.247-1.849-2.723-1.849-4.433v-2.197l18.841,0.075
		c-1.33,1.378-1.995,2.512-1.995,3.398c0,0.64,0.396,1.453,1.184,2.438c1.131,1.378,1.896,2.439,2.291,3.177
		C52.146,23.741,52.541,25.56,52.541,27.628z"/>
	<path fill="#CCCCCC" d="M101.936,35.978c0,1.726-0.598,3.193-1.793,4.395c-1.198,1.21-2.648,1.811-4.356,1.811h-2.127V26.152
		c0-1.28-0.592-2.388-1.784-3.325c-1.187-0.933-2.648-1.402-4.383-1.402s-3.223,0.605-4.459,1.809
		c-1.239,1.207-1.857,2.675-1.857,4.397v8.347c0,1.729-0.604,3.193-1.811,4.397c-1.207,1.207-2.698,1.808-4.471,1.808h-2.142V27.189
		c0-3.841-2.045-5.764-6.132-5.764c-1.822,0-3.325,0.47-4.506,1.402c-1.184,0.938-1.775,2.244-1.775,3.917v9.234
		c0,1.729-0.604,3.193-1.808,4.397c-1.21,1.207-2.648,1.808-4.324,1.808h-2.142V26.89c0-3.791,1.441-7.04,4.321-9.75
		c2.883-2.708,6.293-4.063,10.233-4.063c4.087,0,7.562,1.478,10.415,4.433c2.81-2.955,6.281-4.433,10.418-4.433
		c3.99,0,7.4,1.428,10.233,4.285c2.83,2.858,4.248,6.283,4.248,10.27V35.978L101.936,35.978z"/>
	<path fill="#CCCCCC" d="M131.303,22.458l-1.553,1.257c-1.673,1.28-3.103,1.922-4.283,1.922c-1.233,0-2.587-0.741-4.063-2.218
		c-1.184-1.23-2.687-1.846-4.509-1.846c-1.723,0-3.202,0.606-4.433,1.819s-1.846,2.687-1.846,4.421c0,1.784,0.615,3.284,1.846,4.497
		c1.23,1.216,2.71,1.822,4.433,1.822h4.731c1.723,0,3.176,0.598,4.356,1.793c1.184,1.195,1.775,2.625,1.775,4.283v2.124h-12.782
		c-3.545-0.542-6.539-2.191-8.977-4.951c-2.438-2.757-3.656-5.959-3.656-9.606c0-3.987,1.415-7.411,4.248-10.267
		s6.267-4.285,10.307-4.285c4.579,0,8.174,1.601,10.784,4.802L131.303,22.458z"/>
	<path fill="#CCCCCC" d="M153.709,15.292c0,1.676-0.595,3.104-1.781,4.285c-1.189,1.184-2.622,1.774-4.304,1.774h-3.785
		c-1.535,0-2.883,0.494-4.046,1.477c-1.163,0.987-1.869,2.244-2.115,3.768c0.05,0.1,0.05,3.249,0,9.457
		c0,1.726-0.586,3.176-1.758,4.359c-1.172,1.181-2.61,1.772-4.318,1.772h-2.197v-14.59c0-4.049,1.427-7.479,4.286-10.295
		c2.854-2.814,6.302-4.222,10.339-4.222l9.68,0.073V15.292L153.709,15.292z"/>
	<path fill="#CCCCCC" d="M180.23,25.34c0.393,2.364-0.047,4.21-1.33,5.54l-0.369,0.296c-1.178,1.184-2.631,1.772-4.359,1.772
		c-1.676,0-3.1-0.595-4.283-1.784l-1.553-1.562l3.545-3.568c-0.34-1.339-1.072-2.44-2.18-3.308s-2.373-1.302-3.803-1.302
		c-1.724,0-3.201,0.625-4.434,1.871c-1.23,1.245-1.846,2.739-1.846,4.482c0,1.746,0.615,3.226,1.846,4.45
		c1.233,1.219,2.71,1.854,4.434,1.904h5.174c1.67,0,3.041,0.592,4.096,1.775c1.061,1.181,1.594,2.61,1.594,4.283v2.145h-10.717
		c-4.039,0-7.496-1.43-10.378-4.289c-2.88-2.854-4.324-6.278-4.324-10.269c0-3.987,1.418-7.411,4.251-10.267
		c2.83-2.856,6.267-4.286,10.305-4.286c3.545,0,6.674,1.146,9.381,3.437C177.992,18.949,179.644,21.844,180.23,25.34z"/>
	<path fill="#CCCCCC" d="M209.339,42.333h-2.121c-1.711,0-3.164-0.606-4.359-1.816s-1.793-2.657-1.793-4.339v-8.449
		c0-1.731-0.621-3.214-1.857-4.45c-1.242-1.233-2.725-1.854-4.459-1.854s-3.223,0.621-4.459,1.854
		c-1.242,1.236-1.857,2.719-1.857,4.45c0,1.729,0.615,3.199,1.846,4.412c1.23,1.207,2.707,1.813,4.43,1.813
		c3.105,0.642,4.658,2.695,4.658,6.152v2.153l-4.658,0.073c-3.99,0-7.412-1.43-10.266-4.286c-2.859-2.856-4.289-6.278-4.289-10.271
		c0-4.037,1.418-7.471,4.248-10.304c2.836-2.832,6.27-4.248,10.307-4.248c3.99,0,7.43,1.44,10.307,4.321
		c2.883,2.881,4.324,6.343,4.324,10.38V42.333L209.339,42.333z"/>
	<path fill="#CCCCCC" d="M231.875,42.183h-6.727c-4.037,0-7.512-1.427-10.418-4.283s-4.359-6.281-4.359-10.271V11.524
		c0-1.723,0.604-3.176,1.811-4.358s2.648-1.774,4.324-1.774h2.145v7.831h7.02v2.216c0,1.676-0.609,3.116-1.811,4.321
		c-1.213,1.207-2.648,1.811-4.324,1.811h-0.885v6.092c0,1.737,0.598,3.223,1.787,4.465c1.195,1.236,2.648,1.854,4.354,1.854h0.879
		c1.711,0,3.176,0.598,4.389,1.796c1.207,1.195,1.816,2.622,1.816,4.283V42.183L231.875,42.183z"/>
	<path fill="#CCCCCC" d="M240.306,35.963c0,1.729-0.598,3.196-1.805,4.406s-2.648,1.813-4.324,1.813h-2.145V19.298
		c0-1.727,0.604-3.196,1.811-4.408c1.207-1.21,2.648-1.813,4.324-1.813h2.139V35.963z M240.898,3.841
		c0,1.084-0.369,1.995-1.107,2.733s-1.623,1.107-2.66,1.107c-1.084,0-1.998-0.369-2.73-1.107c-0.744-0.738-1.107-1.649-1.107-2.733
		c0-1.034,0.363-1.932,1.107-2.697C235.132,0.381,236.046,0,237.13,0c1.037,0,1.922,0.381,2.66,1.144
		C240.529,1.909,240.898,2.807,240.898,3.841z"/>
	<path fill="#CCCCCC" d="M271.39,28.367c0,3.844-1.441,7.107-4.324,9.791c-2.883,2.687-6.293,4.025-10.23,4.025
		c-3.99,0-7.4-1.412-10.236-4.245c-2.83-2.833-4.242-6.267-4.242-10.307V13.077h2.121c1.711,0,3.158,0.606,4.36,1.816
		c1.195,1.211,1.793,2.684,1.793,4.412v9.861c0,1.333,0.645,2.47,1.939,3.41c1.295,0.938,2.718,1.409,4.265,1.409
		c1.793,0,3.287-0.545,4.482-1.632s1.793-2.496,1.793-4.228v-8.821c0-1.729,0.604-3.201,1.799-4.412
		c1.195-1.21,2.625-1.816,4.283-1.816h2.197V28.367z"/>
	<path fill="#CCCCCC" d="M299.861,25.34c0.393,2.364-0.047,4.21-1.33,5.54l-0.369,0.296c-1.184,1.184-2.637,1.772-4.359,1.772
		c-1.676,0-3.1-0.595-4.283-1.784l-1.553-1.562l3.545-3.568c-0.346-1.339-1.072-2.44-2.18-3.308s-2.373-1.302-3.803-1.302
		c-1.723,0-3.205,0.625-4.436,1.871s-1.846,2.739-1.846,4.482c0,1.746,0.615,3.226,1.846,4.45c1.23,1.219,2.713,1.854,4.436,1.904
		h5.174c1.67,0,3.035,0.592,4.096,1.775c1.061,1.181,1.588,2.61,1.588,4.283v2.145h-10.711c-4.037,0-7.5-1.43-10.383-4.289
		c-2.877-2.854-4.318-6.278-4.318-10.269c0-3.987,1.412-7.411,4.248-10.267c2.83-2.856,6.27-4.286,10.307-4.286
		c3.545,0,6.674,1.146,9.381,3.437C297.617,18.949,299.269,21.844,299.861,25.34z"/>
</g>
</svg>
